<?xml version="1.0" standalone="no"?><!DOCTYPE svg PUBLIC "-//W3C//DTD SVG 1.1//EN" "http://www.w3.org/Graphics/SVG/1.1/DTD/svg11.dtd"><svg class="icon" width="200px" height="174.45px" viewBox="0 0 1174 1024" version="1.1" xmlns="http://www.w3.org/2000/svg"><path fill="#333333" d="M968.807339 9.981651h-832c-57.541284 0-103.926606 46.972477-103.926605 104.513762v573.651376c0 57.541284 46.385321 104.513761 103.926605 104.513761h347.009175l-52.256881-52.25688h-268.917431c-42.862385 0-78.091743-35.229358-78.091743-78.091743v-521.394496c0-43.449541 34.642202-78.091743 78.091743-78.091743h779.743119c42.862385 0 78.091743 35.229358 78.091743 78.091743v521.394496c0 43.449541-34.642202 78.091743-78.091743 78.091743h-112.733945l-52.256881 52.25688h190.825688c57.541284 0 103.926606-46.972477 103.926606-104.513761V114.495413c0.587156-57.541284-46.385321-104.513761-103.33945-104.513762zM779.155963 401.027523c0 31.119266 25.247706 56.366972 56.366973 56.366972s56.366972-25.247706 56.366972-56.366972-25.247706-56.366972-56.366972-56.366973-56.366972 25.247706-56.366973 56.366973zM496.146789 401.027523c0 31.119266 25.247706 56.366972 56.366972 56.366972s56.366972-25.247706 56.366973-56.366972-25.247706-56.366972-56.366973-56.366973-56.366972 25.247706-56.366972 56.366973zM212.550459 401.027523c0 31.119266 25.247706 56.366972 56.366972 56.366972s56.366972-25.247706 56.366973-56.366972-25.247706-56.366972-56.366973-56.366973-56.366972 25.247706-56.366972 56.366973zM777.981651 792.073394l-146.78899 147.376147-146.788991-147.376147H411.009174l220.770643 221.357799 220.770642-221.357799h-74.568808z" /></svg>