<?xml version="1.0" standalone="no"?><!DOCTYPE svg PUBLIC "-//W3C//DTD SVG 1.1//EN" "http://www.w3.org/Graphics/SVG/1.1/DTD/svg11.dtd"><svg t="1513071961240" class="icon" style="" viewBox="0 0 1024 1024" version="1.1" xmlns="http://www.w3.org/2000/svg" p-id="2885" xmlns:xlink="http://www.w3.org/1999/xlink" width="200" height="200"><defs><style type="text/css"></style></defs><path d="M328.85275 526.978133c-12.097526 0-21.942755-9.845229-21.942755-21.964244 0-54.845119 44.614104-99.480712 99.459223-99.480712 12.119015 0 22.007223 9.866718 22.050202 22.007223 0 12.076036-9.876951 21.921265-22.028713 21.921265-30.629601 0-55.553247 24.923646-55.553247 55.553247C350.838484 517.132904 340.971765 526.978133 328.85275 526.978133z" p-id="2886"></path><path d="M445.463608 132.689045c14.381545 10.370185 49.555649 38.696324 79.476099 86.439698 22.024619 35.145451 37.069267 74.075089 44.714388 115.707278 9.654894 52.574403 7.554046 109.98802-6.245238 170.646542-0.004093 0.017396-0.008186 0.034792-0.01228 0.052189l-1.52268 6.735401c-3.15997 13.975293 1.217734 28.586059 11.541871 38.521339 7.723915 7.433296 17.933441 11.43954 28.384467 11.43954 3.518127 0 7.064906-0.454348 10.55131-1.384533l6.670933-1.780553c0.036839-0.010233 0.073678-0.019443 0.110517-0.029676 6.411013-1.730411 40.016389-12.231579 72.077595-49.157583 28.240181-32.524764 47.139623-75.18026 56.478316-127.299291 15.198144 17.571191 36.501332 45.898353 53.936423 83.087347 32.283264 68.855204 39.467897 141.459802 21.352307 215.797881-12.621459 51.804876-37.570687 96.859002-74.154907 133.910872-37.369096 37.848003-86.838787 67.436902-147.035798 87.944981-0.028653 0.010233-0.058328 0.019443-0.086981 0.029676-2.998287 1.029446-5.259794 1.805112-7.238868 2.559289-2.521426-0.859577-8.04728-3.903913-15.483646-11.908214-0.829901-0.893346-1.698688-1.74883-2.604314-2.564405-0.00921-0.008186-0.041956-0.037862-0.051165-0.046049-1.136893-1.02126-28.186969-25.50386-57.798381-67.582211-17.369599-24.681122-32.058137-50.367131-43.659359-76.342736-14.259772-31.930223-23.863501-64.395636-28.544103-96.494705-0.00307-0.01842-0.005117-0.036839-0.008186-0.055259l-1.458211-9.909697c-2.403746-16.331967-14.383592-29.621645-30.378891-33.701566-3.358491-0.856507-6.752798-1.27197-10.117428-1.27197-12.658298 0-24.844851 5.888104-32.692586 16.304338l-6.027274 8.000208c-0.034792 0.046049-0.069585 0.092098-0.103354 0.138146-5.220908 6.991228-22.958898 33.652448-32.000831 83.201957-8.460696 46.360887-6.795776 97.975429 4.913916 154.054655-15.084557-8.471952-31.648814-19.451004-48.055482-33.494858-28.880771-24.721031-51.812039-54.344722-68.156286-88.047312-20.48966-42.249243-30.893614-91.571578-30.925337-146.604986 0.041956-1.832741 0.845251-29.216415 11.570523-63.935148 6.243191-20.210297 14.618952-39.011502 24.89397-55.881728 12.483312-20.4958 27.886117-38.266535 45.782719-52.818973l19.48068-15.725146C380.291283 341.095585 434.545954 297.481252 445.463608 132.689045M418.08505 76.893274c-6.756891 0-11.30344 17.7165-12.247952 29.514197-6.327102 166.724209-50.490951 202.222701-138.475841 272.940322l-19.583011 15.808034C151.579277 473.337445 150.378939 598.085634 150.378939 599.329974c0 277.573853 238.428298 334.070588 240.938468 334.070588 3.346211-0.257873 4.139274-1.565658 4.397147-1.994424 1.823532-3.02387-0.021489-9.608845-1.350764-12.698207-57.59065-178.886203 1.436722-260.349563 3.968381-263.738753l6.027274-8.000208 1.458211 9.909697c22.972201 157.544129 141.671627 263.631306 143.172817 264.983093 19.368116 20.84884 35.905768 25.245987 46.373167 25.245987 7.978718 0 12.784164-2.552126 13.320377-2.809999 1.308809-0.514723 3.432169-1.24434 6.305613-2.230808 133.156696-45.36521 218.823797-132.148739 247.758804-250.912633 48.175209-197.696618-77.81732-331.260589-103.556541-356.033809-30.350239-29.191856-42.726104-30.05041-44.12087-30.264281-1.029446 1.093914-1.866511 6.692423-1.759063 11.732206-5.619998 174.403099-100.789521 201.836915-104.84386 202.930829l-6.670933 1.780553 1.52268-6.735401C670.198022 220.580814 462.055494 94.331435 459.932134 93.087095 440.521039 81.654718 430.397471 76.893274 418.08505 76.893274L418.08505 76.893274z" p-id="2887"></path></svg>