<?xml version="1.0" standalone="no"?><!DOCTYPE svg PUBLIC "-//W3C//DTD SVG 1.1//EN" "http://www.w3.org/Graphics/SVG/1.1/DTD/svg11.dtd"><svg class="icon" width="200px" height="200.00px" viewBox="0 0 1024 1024" version="1.1" xmlns="http://www.w3.org/2000/svg"><path fill="#333333" d="M510.34 900.892c-23.173 0-247.254-180.18-332.156-289.302C119.845 558.326 72.62 458.94 72.62 388.857c0-148.765 108.953-269.776 242.875-269.776 81.782 0 151.191 67.68 194.014 137.605 42.822-69.925 112.207-137.605 194.014-137.605 133.922 0 242.874 121.011 242.874 269.776 0 70.24-47.446 169.806-106.055 223.182-85.712 110.514-305.48 288.853-330.002 288.853zM315.498 165.068c-108.57 0-196.887 100.398-196.887 223.79 0 58.382 42.06 145.353 91.864 189.902 1.034 0.944 2.022 1.978 2.875 3.1 83.937 109.042 251.138 234.42 297.17 267.922 48.055-34.716 213.056-161.193 294.613-267.451a26.15 26.15 0 0 1 2.964-3.143c50.033-44.663 92.313-131.813 92.313-190.33 0-123.392-88.317-223.79-196.885-223.79-70.488 0-137.81 75.136-173.242 149.598-7.635 16.033-33.908 16.033-41.543 0-35.435-74.462-102.756-149.597-173.242-149.597z" /></svg>