<?xml version="1.0" standalone="no"?><!DOCTYPE svg PUBLIC "-//W3C//DTD SVG 1.1//EN" "http://www.w3.org/Graphics/SVG/1.1/DTD/svg11.dtd"><svg t="1518088615295" class="icon" style="" viewBox="0 0 1024 1024" version="1.1" xmlns="http://www.w3.org/2000/svg" p-id="5155" xmlns:xlink="http://www.w3.org/1999/xlink" width="200" height="200"><defs><style type="text/css"></style></defs><path d="M501.0688 654.9504c0 0 180.4288 142.592 338.944-203.0336C840.0128 451.9168 505.4976 388.992 501.0688 654.9504M528.0512 831.744c-54.6304-73.9584-100.2496-196.4544-12.544-365.0304C668.16 173.2352 473.8816 119.296 473.8816 119.296s164.8128 73.3696 8.832 322.304C529.1008 232.32 238.08 170.4704 238.08 170.4704c5.5296 315.5456 161.4336 325.2224 213.248 319.6672-95.8976 151.3472-67.968 269.6448-27.3408 342.7072-67.3536 10.24-117.4784 37.9904-123.6736 71.8592l359.6288 0C653.4912 869.504 599.552 840.8576 528.0512 831.744" p-id="5156" fill="#1afa29"></path></svg>