<?xml version="1.0" standalone="no"?><!DOCTYPE svg PUBLIC "-//W3C//DTD SVG 1.1//EN" "http://www.w3.org/Graphics/SVG/1.1/DTD/svg11.dtd"><svg t="1513670107207" class="icon" style="" viewBox="0 0 1024 1024" version="1.1" xmlns="http://www.w3.org/2000/svg" p-id="8324" xmlns:xlink="http://www.w3.org/1999/xlink" width="200" height="200"><defs><style type="text/css"></style></defs><path d="M856.848 782.4l-73.6-129.488V391.92c0-100-75.152-208.224-184.752-247.888-5.328-52.992-40.752-91.648-87.152-91.648-46.336 0-81.888 38.656-87.152 91.648-109.52 39.664-184.688 147.888-184.688 247.888v261.008l-77.168 135.84a28.944 28.944 0 0 0 0.128 28.896c5.136 8.912 14.688 14.304 24.992 14.304h183.68c13.488 65.184 71.216 114.304 140.224 114.304 69.088 0 126.768-49.104 140.208-114.304h185.008c16 0 28.944-12.88 28.944-28.896 0-8.096-3.264-15.44-8.672-20.672M511.344 110.336c10.432 0 18.848 7.904 24.24 19.712-8.032-0.816-15.824-2.688-24.24-2.688s-16.208 1.872-24.24 2.688c5.408-11.808 13.824-19.712 24.24-19.712m0 778.016c-36.736 0-67.44-23.632-79.376-56.4h158.752c-11.936 32.784-42.576 56.4-79.376 56.4m-274.16-114.224l56.384-99.28c2.512-4.272 3.888-9.296 3.888-14.336V391.92c0-97.552 91.424-206.672 213.888-206.672s214 109.104 214 206.672v268.608c0 5.024 1.328 10.064 3.76 14.336l56.464 99.28H237.184v-0.016z" fill="#ffffff" p-id="8325"></path><path d="M718.128 250.704m-97.408 0a97.408 97.408 0 1 0 194.816 0 97.408 97.408 0 1 0-194.816 0Z" fill="#ffffff" p-id="8326"></path></svg>