<?xml version="1.0" standalone="no"?><!DOCTYPE svg PUBLIC "-//W3C//DTD SVG 1.1//EN" "http://www.w3.org/Graphics/SVG/1.1/DTD/svg11.dtd"><svg t="1512916305318" class="icon" style="" viewBox="0 0 1653 1024" version="1.1" xmlns="http://www.w3.org/2000/svg" p-id="1566" xmlns:xlink="http://www.w3.org/1999/xlink" width="322.8515625" height="200"><defs><style type="text/css"></style></defs><path d="M826.085148 1024c-326.902437 0-531.694858-133.913668-645.904194-248.19879C54.149018 653.785927 6.87757 537.3788 2.95565 529.497067s-3.940866-19.685385 0-31.507984c3.940866-3.940866 51.155476-131.715877 177.225304-257.672026C294.39029 133.894721 499.163765 0 826.085148 0s531.694858 133.913668 645.904194 248.19879C1598.059171 370.157234 1645.292727 492.305142 1649.214647 500.186874s3.940866 19.685385 0 31.507984c-3.940866 3.940866-51.155476 126.031935-177.225304 251.988084-114.209336 106.34655-319.020704 240.241271-645.904194 240.241271l0 0Zm-748.385664-506.325531c35.44885 78.779433 228.437619 427.546099 748.385664 427.546099s712.861028-354.469554 748.385664-433.230041c-35.44885-78.779433-228.437619-433.230041-748.385664-433.230041-515.95034 0-712.861028 360.153496-748.385664 438.913982l0 0Z" p-id="1567"></path><path d="M826.085148 827.070365c-173.303384 0-315.079838-141.776454-315.079838-315.079838s141.776454-315.079838 315.079838-315.079838 315.079838 141.776454 315.079838 315.079838S999.350639 827.070365 826.085148 827.070365l0 0Zm0-555.321109c-133.913668 0-240.241271 106.34655-240.241271 240.241271s106.34655 240.241271 240.241271 240.241271 240.241271-106.34655 240.241271-240.241271-106.34655-240.241271-240.241271-240.241271l0 0Z" p-id="1568"></path></svg>