<?xml version="1.0" standalone="no"?><!DOCTYPE svg PUBLIC "-//W3C//DTD SVG 1.1//EN" "http://www.w3.org/Graphics/SVG/1.1/DTD/svg11.dtd"><svg t="1514042039366" class="icon" style="" viewBox="0 0 1024 1024" version="1.1" xmlns="http://www.w3.org/2000/svg" p-id="2208" xmlns:xlink="http://www.w3.org/1999/xlink" width="200" height="200"><defs><style type="text/css"></style></defs><path d="M512 1024c-282.112 0-512-229.888-512-512s229.888-512 512-512S1024 229.888 1024 512s-229.888 512-512 512z m0-1008.64c-273.92 0-496.64 222.72-496.64 496.64s222.72 496.64 496.64 496.64 496.64-222.72 496.64-496.64-222.72-496.64-496.64-496.64z m0 973.824c-263.168 0-477.184-214.016-477.184-477.184 0-263.168 214.016-477.184 477.184-477.184s477.184 214.016 477.184 477.184c0 263.168-214.016 477.184-477.184 477.184z m0-949.76c-260.608 0-472.576 211.968-472.576 472.576s211.968 472.576 472.576 472.576 472.576-211.968 472.576-472.576-211.968-472.576-472.576-472.576z m391.68 357.888l-3.584 19.456c-47.104-2.56-88.576-16.896-124.416-43.008 12.8 46.592 6.144 90.112-18.432 130.56l-18.432-7.168c24.576-37.376 30.72-77.312 18.432-119.808l-49.664 29.696-9.216-15.872 53.248-31.744c-5.12-11.776-10.752-23.552-17.408-34.816l-11.264-18.944-46.592 27.648-9.728-15.872 46.592-27.648-20.48-34.304 16.384-9.728 20.48 34.304 52.736-31.232 40.448 68.096 20.48-12.288 9.216 15.872-68.608 40.96c34.816 23.04 74.752 35.328 119.808 35.84z m-97.28-71.68l-31.232-51.712-36.352 22.016 8.704 14.848c7.68 13.312 14.336 26.112 19.456 38.4l39.424-23.552zM512 194.048c-173.056 0-314.368 139.264-317.44 311.808l-24.064 13.824v-7.68c0-188.416 153.088-342.016 342.016-342.016 63.488 0 122.88 17.408 174.08 47.616l-24.064 13.824c-45.056-23.552-96.256-37.376-150.528-37.376z m15.36-72.192c-0.512 0.512-0.512 1.024-0.512 1.536l6.144 23.552c0 0.512 0 0.512-0.512 0.512l-20.48-13.312c-0.512-0.512-1.024-0.512-1.536 0l-20.48 13.312c-0.512 0.512-0.512 0-0.512-0.512l6.656-23.552c0-0.512 0-1.024-0.512-1.536l-18.944-15.36c-0.512-0.512-0.512-0.512 0-0.512l24.576-1.024c0.512 0 1.024-0.512 1.024-1.024l8.704-22.528c0-0.512 0.512-0.512 0.512 0l8.704 23.04c0 0.512 0.512 1.024 1.024 1.024l24.576 1.024c0.512 0 0.512 0.512 0 0.512l-18.432 14.848z m-203.776 62.464c-0.512 0-1.024 0.512-1.024 0.512l-11.264 21.504c0 0.512-0.512 0.512-0.512 0l-6.144-23.552c0-0.512-0.512-1.024-1.024-1.024l-24.064-3.584c-0.512 0-0.512-0.512 0-0.512l20.48-13.312c0.512-0.512 0.512-1.024 0.512-1.536l-4.096-24.064c0-0.512 0-0.512 0.512-0.512l18.944 15.36c0.512 0.512 1.024 0.512 1.536 0l21.504-11.264c0.512 0 0.512 0 0.512 0.512l-8.704 22.528c0 0.512 0 1.024 0.512 1.536l17.408 17.408c0.512 0.512 0 0.512 0 0.512-0.512 1.024-25.088-0.512-25.088-0.512z m-138.752 137.728c-0.512 0-0.512 0.512-0.512 1.024l1.536 24.576c0 0.512 0 0.512-0.512 0l-16.896-17.408c-0.512-0.512-1.024-0.512-1.536-0.512l-22.528 8.704c-0.512 0-0.512 0-0.512-0.512l11.264-21.504v-1.536l-15.36-18.944c-0.512-0.512 0-0.512 0.512-0.512l24.064 4.096c0.512 0 1.024 0 1.536-0.512l13.312-20.48c0.512-0.512 0.512-0.512 0.512 0l3.584 24.064c0 0.512 0.512 1.024 1.024 1.024l23.552 6.144c0.512 0 0.512 0.512 0 0.512-1.024 1.024-23.04 11.776-23.04 11.776z m171.52 274.944l-143.36 85.504 41.472 69.12c5.632 9.728 13.312 11.264 22.528 6.144l118.272-70.656c5.12-3.072 8.704-7.168 10.24-11.776 1.536-6.656-4.608-23.04-18.432-49.152l18.944-4.608c14.848 29.696 21.504 49.152 19.968 58.368-2.048 7.68-7.68 14.848-16.384 20.48l-127.488 75.776c-17.408 10.24-31.744 6.656-42.496-11.776l-72.704-121.856 16.384-9.728 19.968 33.28 126.464-75.264-35.84-60.416-155.136 92.672-9.728-16.384 172.032-102.912 55.296 93.184z m305.152-241.664l-8.192 17.408c-17.92-10.752-40.96-21.504-67.584-32.768l8.704-16.896c27.136 11.264 49.664 22.016 67.072 32.256z m-39.936 110.08l-34.304 20.48 16.896 28.16 39.424-23.552 8.704 14.848-39.424 23.552 27.136 45.056-16.384 9.728-27.136-45.056-50.176 30.208-8.704-15.36 50.176-30.208-16.896-28.16-27.136 16.384c0.512 10.752 0 20.48-1.536 29.696l-16.896-6.144c3.584-16.896 1.536-35.84-6.144-56.32l15.36-5.632 6.144 19.968 20.992-12.8-12.8-21.504 16.384-9.728 12.8 21.504 34.304-20.48 9.216 15.36z m-41.472-48.64c-0.512 8.704-5.632 15.872-15.36 22.016-3.072 2.048-9.728 5.632-19.968 10.752l-12.288-11.264 20.48-10.752c6.144-4.096 9.216-8.192 8.192-13.312-1.024-4.608-6.144-15.36-15.872-32.768l-33.792 20.48c4.096 11.776 6.144 23.04 6.656 34.304-0.512 13.312-4.096 27.648-10.752 42.496l-17.408-7.168c6.656-12.288 10.24-24.064 10.24-35.84 0-8.192-1.536-16.384-4.608-25.088l-30.72 18.432-8.704-14.848 96.256-57.344c18.944 31.232 28.16 51.2 27.648 59.904z m-24.576 181.76c6.656 10.752 4.096 19.968-7.168 26.624l-13.312 7.68-12.288-11.264c6.144-3.072 10.24-5.12 12.8-6.144 5.12-3.072 6.144-7.168 2.56-13.312l-18.944-32.256-21.504 12.8 31.232 52.224-13.312 8.192-31.232-52.224-22.016 13.312c11.776 24.064 17.92 46.08 18.432 66.56l-17.408-3.584c-1.536-22.528-9.728-47.104-25.6-73.216l-42.496-70.656c-0.512 1.536-0.512 3.072-1.024 4.096l-17.408-6.144c5.12-23.04 4.608-49.152-0.512-78.336l16.896-5.632 3.072 18.432 40.96-24.576 6.656 11.776c1.024 12.8 1.024 24.064 0 35.328l27.648-16.384 83.968 136.704z m-66.048-29.696l21.504-12.8-17.92-30.208-21.504 12.8 17.92 30.208z m-35.84 17.408l1.536 3.072 20.992-12.8-17.92-30.208-20.992 12.288 16.384 27.648z m-24.576-132.096l-30.208 17.92c0.512 9.216 0.512 20.48-0.512 32.768l30.208-17.92c0.512-8.704 0.512-19.456 0.512-32.768z m3.584 49.664l-20.992 12.288 17.408 28.672 20.992-12.288-17.408-28.672z m13.312-8.192l17.408 28.672 21.504-12.8-17.408-28.672-21.504 12.8z m246.784-93.184c9.216 40.96 15.872 80.384 19.968 118.784l-19.968 2.56c-3.584-39.936-9.728-79.36-18.432-118.272 0.512 0 18.432-3.072 18.432-3.072zM512 829.952c173.056 0 314.368-139.264 317.44-311.808l24.064-13.824v7.68c0 188.416-153.088 342.016-342.016 342.016-63.488 0-122.88-17.408-174.08-47.616l24.064-13.824c45.056 23.552 96.256 37.376 150.528 37.376z m-15.872 71.68c0.512-0.512 0.512-1.024 0.512-1.536l-6.656-23.552c0-0.512 0-0.512 0.512-0.512l20.48 13.312c0.512 0.512 1.024 0.512 1.536 0l19.968-13.824c0.512-0.512 0.512 0 0.512 0.512l-6.144 23.552c0 0.512 0 1.024 0.512 1.536l18.944 14.848c0.512 0.512 0.512 0.512 0 0.512l-24.576 1.536c-0.512 0-1.024 0.512-1.024 1.024l-8.192 23.04c0 0.512-0.512 0.512-0.512 0l-8.704-22.528c0-0.512-0.512-1.024-1.024-1.024l-24.576-1.024c-0.512 0-0.512-0.512 0-0.512-0.512 0 18.432-15.36 18.432-15.36z m203.776-62.464c0.512 0 1.024-0.512 1.024-0.512l10.752-22.016c0-0.512 0.512-0.512 0.512 0l6.656 23.552c0 0.512 0.512 1.024 1.024 1.024l24.064 3.584c0.512 0 0.512 0.512 0 0.512l-20.48 13.312c-0.512 0.512-0.512 1.024-0.512 1.536l4.096 24.064c0 0.512 0 0.512-0.512 0.512l-18.944-15.36c-0.512-0.512-1.024-0.512-1.536 0l-21.504 11.264c-0.512 0-0.512 0-0.512-0.512l8.704-23.04c0-0.512 0-1.024-0.512-1.536l-17.408-16.896c-0.512-0.512 0-0.512 0-0.512l25.088 1.024z m138.752-137.728c0.512-0.512 0.512-0.512 0.512-1.024l-1.536-24.064c0-0.512 0-0.512 0.512-0.512l17.408 16.896c0.512 0.512 1.024 0.512 1.536 0.512l22.528-9.216c0.512 0 0.512 0 0.512 0.512l-10.752 22.016v1.536l15.872 18.432c0.512 0.512 0 0.512-0.512 0.512l-24.064-3.584c-0.512 0-1.024 0-1.536 0.512l-12.8 20.48c-0.512 0.512-0.512 0.512-0.512 0l-4.096-24.064c0-0.512-0.512-1.024-1.024-1.024l-23.552-6.144c-0.512 0-0.512-0.512 0-0.512l21.504-11.264z" fill="#d81e06" p-id="2209"></path></svg>